<?xml version="1.0" encoding="UTF-8"?>
<svg xmlns="http://www.w3.org/2000/svg" xmlns:xlink="http://www.w3.org/1999/xlink" width="24pt" height="24pt" viewBox="0 0 24 24" version="1.1">
<g id="surface5">
<path style="fill:none;stroke-width:0.25;stroke-linecap:butt;stroke-linejoin:miter;stroke:rgb(0%,25%,30%);stroke-opacity:1;stroke-miterlimit:10;" d="M 22 12 L 22 12 "/>
<path style="fill:none;stroke-width:0.25;stroke-linecap:butt;stroke-linejoin:miter;stroke:rgb(0%,25%,30%);stroke-opacity:1;stroke-miterlimit:10;" d="M 22 12 L 17 20.660156 "/>
<path style="fill:none;stroke-width:0.25;stroke-linecap:butt;stroke-linejoin:miter;stroke:rgb(0%,25%,30%);stroke-opacity:1;stroke-miterlimit:10;" d="M 22 12 L 7 20.660156 "/>
<path style="fill:none;stroke-width:0.25;stroke-linecap:butt;stroke-linejoin:miter;stroke:rgb(0%,25%,30%);stroke-opacity:1;stroke-miterlimit:10;" d="M 22 12 L 2 12 "/>
<path style="fill:none;stroke-width:0.25;stroke-linecap:butt;stroke-linejoin:miter;stroke:rgb(0%,25%,30%);stroke-opacity:1;stroke-miterlimit:10;" d="M 22 12 L 7 3.339844 "/>
<path style="fill:none;stroke-width:0.25;stroke-linecap:butt;stroke-linejoin:miter;stroke:rgb(0%,25%,30%);stroke-opacity:1;stroke-miterlimit:10;" d="M 22 12 L 17 3.339844 "/>
<path style="fill:none;stroke-width:0.25;stroke-linecap:butt;stroke-linejoin:miter;stroke:rgb(0%,25%,30%);stroke-opacity:1;stroke-miterlimit:10;" d="M 17 20.660156 L 22 12 "/>
<path style="fill:none;stroke-width:0.25;stroke-linecap:butt;stroke-linejoin:miter;stroke:rgb(0%,25%,30%);stroke-opacity:1;stroke-miterlimit:10;" d="M 17 20.660156 L 17 20.660156 "/>
<path style="fill:none;stroke-width:0.25;stroke-linecap:butt;stroke-linejoin:miter;stroke:rgb(0%,25%,30%);stroke-opacity:1;stroke-miterlimit:10;" d="M 17 20.660156 L 7 20.660156 "/>
<path style="fill:none;stroke-width:0.25;stroke-linecap:butt;stroke-linejoin:miter;stroke:rgb(0%,25%,30%);stroke-opacity:1;stroke-miterlimit:10;" d="M 17 20.660156 L 2 12 "/>
<path style="fill:none;stroke-width:0.25;stroke-linecap:butt;stroke-linejoin:miter;stroke:rgb(0%,25%,30%);stroke-opacity:1;stroke-miterlimit:10;" d="M 17 20.660156 L 7 3.339844 "/>
<path style="fill:none;stroke-width:0.25;stroke-linecap:butt;stroke-linejoin:miter;stroke:rgb(0%,25%,30%);stroke-opacity:1;stroke-miterlimit:10;" d="M 17 20.660156 L 17 3.339844 "/>
<path style="fill:none;stroke-width:0.25;stroke-linecap:butt;stroke-linejoin:miter;stroke:rgb(0%,25%,30%);stroke-opacity:1;stroke-miterlimit:10;" d="M 7 20.660156 L 22 12 "/>
<path style="fill:none;stroke-width:0.25;stroke-linecap:butt;stroke-linejoin:miter;stroke:rgb(0%,25%,30%);stroke-opacity:1;stroke-miterlimit:10;" d="M 7 20.660156 L 17 20.660156 "/>
<path style="fill:none;stroke-width:0.25;stroke-linecap:butt;stroke-linejoin:miter;stroke:rgb(0%,25%,30%);stroke-opacity:1;stroke-miterlimit:10;" d="M 7 20.660156 L 7 20.660156 "/>
<path style="fill:none;stroke-width:0.25;stroke-linecap:butt;stroke-linejoin:miter;stroke:rgb(0%,25%,30%);stroke-opacity:1;stroke-miterlimit:10;" d="M 7 20.660156 L 2 12 "/>
<path style="fill:none;stroke-width:0.25;stroke-linecap:butt;stroke-linejoin:miter;stroke:rgb(0%,25%,30%);stroke-opacity:1;stroke-miterlimit:10;" d="M 7 20.660156 L 7 3.339844 "/>
<path style="fill:none;stroke-width:0.25;stroke-linecap:butt;stroke-linejoin:miter;stroke:rgb(0%,25%,30%);stroke-opacity:1;stroke-miterlimit:10;" d="M 7 20.660156 L 17 3.339844 "/>
<path style="fill:none;stroke-width:0.25;stroke-linecap:butt;stroke-linejoin:miter;stroke:rgb(0%,25%,30%);stroke-opacity:1;stroke-miterlimit:10;" d="M 2 12 L 22 12 "/>
<path style="fill:none;stroke-width:0.25;stroke-linecap:butt;stroke-linejoin:miter;stroke:rgb(0%,25%,30%);stroke-opacity:1;stroke-miterlimit:10;" d="M 2 12 L 17 20.660156 "/>
<path style="fill:none;stroke-width:0.25;stroke-linecap:butt;stroke-linejoin:miter;stroke:rgb(0%,25%,30%);stroke-opacity:1;stroke-miterlimit:10;" d="M 2 12 L 7 20.660156 "/>
<path style="fill:none;stroke-width:0.25;stroke-linecap:butt;stroke-linejoin:miter;stroke:rgb(0%,25%,30%);stroke-opacity:1;stroke-miterlimit:10;" d="M 2 12 L 2 12 "/>
<path style="fill:none;stroke-width:0.25;stroke-linecap:butt;stroke-linejoin:miter;stroke:rgb(0%,25%,30%);stroke-opacity:1;stroke-miterlimit:10;" d="M 2 12 L 7 3.339844 "/>
<path style="fill:none;stroke-width:0.25;stroke-linecap:butt;stroke-linejoin:miter;stroke:rgb(0%,25%,30%);stroke-opacity:1;stroke-miterlimit:10;" d="M 2 12 L 17 3.339844 "/>
<path style="fill:none;stroke-width:0.25;stroke-linecap:butt;stroke-linejoin:miter;stroke:rgb(0%,25%,30%);stroke-opacity:1;stroke-miterlimit:10;" d="M 7 3.339844 L 22 12 "/>
<path style="fill:none;stroke-width:0.25;stroke-linecap:butt;stroke-linejoin:miter;stroke:rgb(0%,25%,30%);stroke-opacity:1;stroke-miterlimit:10;" d="M 7 3.339844 L 17 20.660156 "/>
<path style="fill:none;stroke-width:0.25;stroke-linecap:butt;stroke-linejoin:miter;stroke:rgb(0%,25%,30%);stroke-opacity:1;stroke-miterlimit:10;" d="M 7 3.339844 L 7 20.660156 "/>
<path style="fill:none;stroke-width:0.25;stroke-linecap:butt;stroke-linejoin:miter;stroke:rgb(0%,25%,30%);stroke-opacity:1;stroke-miterlimit:10;" d="M 7 3.339844 L 2 12 "/>
<path style="fill:none;stroke-width:0.25;stroke-linecap:butt;stroke-linejoin:miter;stroke:rgb(0%,25%,30%);stroke-opacity:1;stroke-miterlimit:10;" d="M 7 3.339844 L 7 3.339844 "/>
<path style="fill:none;stroke-width:0.25;stroke-linecap:butt;stroke-linejoin:miter;stroke:rgb(0%,25%,30%);stroke-opacity:1;stroke-miterlimit:10;" d="M 7 3.339844 L 17 3.339844 "/>
<path style="fill:none;stroke-width:0.25;stroke-linecap:butt;stroke-linejoin:miter;stroke:rgb(0%,25%,30%);stroke-opacity:1;stroke-miterlimit:10;" d="M 17 3.339844 L 22 12 "/>
<path style="fill:none;stroke-width:0.25;stroke-linecap:butt;stroke-linejoin:miter;stroke:rgb(0%,25%,30%);stroke-opacity:1;stroke-miterlimit:10;" d="M 17 3.339844 L 17 20.660156 "/>
<path style="fill:none;stroke-width:0.25;stroke-linecap:butt;stroke-linejoin:miter;stroke:rgb(0%,25%,30%);stroke-opacity:1;stroke-miterlimit:10;" d="M 17 3.339844 L 7 20.660156 "/>
<path style="fill:none;stroke-width:0.25;stroke-linecap:butt;stroke-linejoin:miter;stroke:rgb(0%,25%,30%);stroke-opacity:1;stroke-miterlimit:10;" d="M 17 3.339844 L 2 12 "/>
<path style="fill:none;stroke-width:0.25;stroke-linecap:butt;stroke-linejoin:miter;stroke:rgb(0%,25%,30%);stroke-opacity:1;stroke-miterlimit:10;" d="M 17 3.339844 L 7 3.339844 "/>
<path style="fill:none;stroke-width:0.25;stroke-linecap:butt;stroke-linejoin:miter;stroke:rgb(0%,25%,30%);stroke-opacity:1;stroke-miterlimit:10;" d="M 17 3.339844 L 17 3.339844 "/>
<path style=" stroke:none;fill-rule:nonzero;fill:rgb(100%,0%,0%);fill-opacity:1;" d="M 23 12 C 23 13.332031 21 13.332031 21 12 C 21 10.667969 23 10.667969 23 12 "/>
<path style=" stroke:none;fill-rule:nonzero;fill:rgb(100%,28.318531%,0%);fill-opacity:1;" d="M 18 20.660156 C 18 21.992188 16 21.992188 16 20.660156 C 16 19.328125 18 19.328125 18 20.660156 "/>
<path style=" stroke:none;fill-rule:nonzero;fill:rgb(100%,56.637061%,0%);fill-opacity:1;" d="M 8 20.660156 C 8 21.992188 6 21.992188 6 20.660156 C 6 19.328125 8 19.328125 8 20.660156 "/>
<path style=" stroke:none;fill-rule:nonzero;fill:rgb(100%,84.955592%,0%);fill-opacity:1;" d="M 3 12 C 3 13.332031 1 13.332031 1 12 C 1 10.667969 3 10.667969 3 12 "/>
<path style=" stroke:none;fill-rule:nonzero;fill:rgb(86.725877%,100%,0%);fill-opacity:1;" d="M 8 3.339844 C 8 4.671875 6 4.671875 6 3.339844 C 6 2.007812 8 2.007812 8 3.339844 "/>
<path style=" stroke:none;fill-rule:nonzero;fill:rgb(58.407346%,100%,0%);fill-opacity:1;" d="M 18 3.339844 C 18 4.671875 16 4.671875 16 3.339844 C 16 2.007812 18 2.007812 18 3.339844 "/>
</g>
</svg>
