<?xml version="1.0" encoding="UTF-8"?>
<svg xmlns="http://www.w3.org/2000/svg" xmlns:xlink="http://www.w3.org/1999/xlink" width="128pt" height="128pt" viewBox="0 0 128 128" version="1.1">
<g id="surface21">
<path style="fill:none;stroke-width:0.25;stroke-linecap:butt;stroke-linejoin:miter;stroke:rgb(0%,25%,30%);stroke-opacity:1;stroke-miterlimit:10;" d="M 119 64 L 119 64 "/>
<path style="fill:none;stroke-width:0.25;stroke-linecap:butt;stroke-linejoin:miter;stroke:rgb(0%,25%,30%);stroke-opacity:1;stroke-miterlimit:10;" d="M 119 64 L 106.132812 99.351562 "/>
<path style="fill:none;stroke-width:0.25;stroke-linecap:butt;stroke-linejoin:miter;stroke:rgb(0%,25%,30%);stroke-opacity:1;stroke-miterlimit:10;" d="M 119 64 L 73.550781 118.164062 "/>
<path style="fill:none;stroke-width:0.25;stroke-linecap:butt;stroke-linejoin:miter;stroke:rgb(0%,25%,30%);stroke-opacity:1;stroke-miterlimit:10;" d="M 119 64 L 36.5 111.632812 "/>
<path style="fill:none;stroke-width:0.25;stroke-linecap:butt;stroke-linejoin:miter;stroke:rgb(0%,25%,30%);stroke-opacity:1;stroke-miterlimit:10;" d="M 119 64 L 12.316406 82.8125 "/>
<path style="fill:none;stroke-width:0.25;stroke-linecap:butt;stroke-linejoin:miter;stroke:rgb(0%,25%,30%);stroke-opacity:1;stroke-miterlimit:10;" d="M 119 64 L 12.316406 45.1875 "/>
<path style="fill:none;stroke-width:0.25;stroke-linecap:butt;stroke-linejoin:miter;stroke:rgb(0%,25%,30%);stroke-opacity:1;stroke-miterlimit:10;" d="M 119 64 L 36.5 16.367188 "/>
<path style="fill:none;stroke-width:0.25;stroke-linecap:butt;stroke-linejoin:miter;stroke:rgb(0%,25%,30%);stroke-opacity:1;stroke-miterlimit:10;" d="M 119 64 L 73.550781 9.835938 "/>
<path style="fill:none;stroke-width:0.25;stroke-linecap:butt;stroke-linejoin:miter;stroke:rgb(0%,25%,30%);stroke-opacity:1;stroke-miterlimit:10;" d="M 119 64 L 106.132812 28.648438 "/>
<path style="fill:none;stroke-width:0.25;stroke-linecap:butt;stroke-linejoin:miter;stroke:rgb(0%,25%,30%);stroke-opacity:1;stroke-miterlimit:10;" d="M 106.132812 99.351562 L 119 64 "/>
<path style="fill:none;stroke-width:0.25;stroke-linecap:butt;stroke-linejoin:miter;stroke:rgb(0%,25%,30%);stroke-opacity:1;stroke-miterlimit:10;" d="M 106.132812 99.351562 L 106.132812 99.351562 "/>
<path style="fill:none;stroke-width:0.25;stroke-linecap:butt;stroke-linejoin:miter;stroke:rgb(0%,25%,30%);stroke-opacity:1;stroke-miterlimit:10;" d="M 106.132812 99.351562 L 73.550781 118.164062 "/>
<path style="fill:none;stroke-width:0.25;stroke-linecap:butt;stroke-linejoin:miter;stroke:rgb(0%,25%,30%);stroke-opacity:1;stroke-miterlimit:10;" d="M 106.132812 99.351562 L 36.5 111.632812 "/>
<path style="fill:none;stroke-width:0.25;stroke-linecap:butt;stroke-linejoin:miter;stroke:rgb(0%,25%,30%);stroke-opacity:1;stroke-miterlimit:10;" d="M 106.132812 99.351562 L 12.316406 82.8125 "/>
<path style="fill:none;stroke-width:0.25;stroke-linecap:butt;stroke-linejoin:miter;stroke:rgb(0%,25%,30%);stroke-opacity:1;stroke-miterlimit:10;" d="M 106.132812 99.351562 L 12.316406 45.1875 "/>
<path style="fill:none;stroke-width:0.25;stroke-linecap:butt;stroke-linejoin:miter;stroke:rgb(0%,25%,30%);stroke-opacity:1;stroke-miterlimit:10;" d="M 106.132812 99.351562 L 36.5 16.367188 "/>
<path style="fill:none;stroke-width:0.25;stroke-linecap:butt;stroke-linejoin:miter;stroke:rgb(0%,25%,30%);stroke-opacity:1;stroke-miterlimit:10;" d="M 106.132812 99.351562 L 73.550781 9.835938 "/>
<path style="fill:none;stroke-width:0.25;stroke-linecap:butt;stroke-linejoin:miter;stroke:rgb(0%,25%,30%);stroke-opacity:1;stroke-miterlimit:10;" d="M 106.132812 99.351562 L 106.132812 28.648438 "/>
<path style="fill:none;stroke-width:0.25;stroke-linecap:butt;stroke-linejoin:miter;stroke:rgb(0%,25%,30%);stroke-opacity:1;stroke-miterlimit:10;" d="M 73.550781 118.164062 L 119 64 "/>
<path style="fill:none;stroke-width:0.25;stroke-linecap:butt;stroke-linejoin:miter;stroke:rgb(0%,25%,30%);stroke-opacity:1;stroke-miterlimit:10;" d="M 73.550781 118.164062 L 106.132812 99.351562 "/>
<path style="fill:none;stroke-width:0.25;stroke-linecap:butt;stroke-linejoin:miter;stroke:rgb(0%,25%,30%);stroke-opacity:1;stroke-miterlimit:10;" d="M 73.550781 118.164062 L 73.550781 118.164062 "/>
<path style="fill:none;stroke-width:0.25;stroke-linecap:butt;stroke-linejoin:miter;stroke:rgb(0%,25%,30%);stroke-opacity:1;stroke-miterlimit:10;" d="M 73.550781 118.164062 L 36.5 111.632812 "/>
<path style="fill:none;stroke-width:0.25;stroke-linecap:butt;stroke-linejoin:miter;stroke:rgb(0%,25%,30%);stroke-opacity:1;stroke-miterlimit:10;" d="M 73.550781 118.164062 L 12.316406 82.8125 "/>
<path style="fill:none;stroke-width:0.25;stroke-linecap:butt;stroke-linejoin:miter;stroke:rgb(0%,25%,30%);stroke-opacity:1;stroke-miterlimit:10;" d="M 73.550781 118.164062 L 12.316406 45.1875 "/>
<path style="fill:none;stroke-width:0.25;stroke-linecap:butt;stroke-linejoin:miter;stroke:rgb(0%,25%,30%);stroke-opacity:1;stroke-miterlimit:10;" d="M 73.550781 118.164062 L 36.5 16.367188 "/>
<path style="fill:none;stroke-width:0.25;stroke-linecap:butt;stroke-linejoin:miter;stroke:rgb(0%,25%,30%);stroke-opacity:1;stroke-miterlimit:10;" d="M 73.550781 118.164062 L 73.550781 9.835938 "/>
<path style="fill:none;stroke-width:0.25;stroke-linecap:butt;stroke-linejoin:miter;stroke:rgb(0%,25%,30%);stroke-opacity:1;stroke-miterlimit:10;" d="M 73.550781 118.164062 L 106.132812 28.648438 "/>
<path style="fill:none;stroke-width:0.25;stroke-linecap:butt;stroke-linejoin:miter;stroke:rgb(0%,25%,30%);stroke-opacity:1;stroke-miterlimit:10;" d="M 36.5 111.632812 L 119 64 "/>
<path style="fill:none;stroke-width:0.25;stroke-linecap:butt;stroke-linejoin:miter;stroke:rgb(0%,25%,30%);stroke-opacity:1;stroke-miterlimit:10;" d="M 36.5 111.632812 L 106.132812 99.351562 "/>
<path style="fill:none;stroke-width:0.25;stroke-linecap:butt;stroke-linejoin:miter;stroke:rgb(0%,25%,30%);stroke-opacity:1;stroke-miterlimit:10;" d="M 36.5 111.632812 L 73.550781 118.164062 "/>
<path style="fill:none;stroke-width:0.25;stroke-linecap:butt;stroke-linejoin:miter;stroke:rgb(0%,25%,30%);stroke-opacity:1;stroke-miterlimit:10;" d="M 36.5 111.632812 L 36.5 111.632812 "/>
<path style="fill:none;stroke-width:0.25;stroke-linecap:butt;stroke-linejoin:miter;stroke:rgb(0%,25%,30%);stroke-opacity:1;stroke-miterlimit:10;" d="M 36.5 111.632812 L 12.316406 82.8125 "/>
<path style="fill:none;stroke-width:0.25;stroke-linecap:butt;stroke-linejoin:miter;stroke:rgb(0%,25%,30%);stroke-opacity:1;stroke-miterlimit:10;" d="M 36.5 111.632812 L 12.316406 45.1875 "/>
<path style="fill:none;stroke-width:0.25;stroke-linecap:butt;stroke-linejoin:miter;stroke:rgb(0%,25%,30%);stroke-opacity:1;stroke-miterlimit:10;" d="M 36.5 111.632812 L 36.5 16.367188 "/>
<path style="fill:none;stroke-width:0.25;stroke-linecap:butt;stroke-linejoin:miter;stroke:rgb(0%,25%,30%);stroke-opacity:1;stroke-miterlimit:10;" d="M 36.5 111.632812 L 73.550781 9.835938 "/>
<path style="fill:none;stroke-width:0.25;stroke-linecap:butt;stroke-linejoin:miter;stroke:rgb(0%,25%,30%);stroke-opacity:1;stroke-miterlimit:10;" d="M 36.5 111.632812 L 106.132812 28.648438 "/>
<path style="fill:none;stroke-width:0.25;stroke-linecap:butt;stroke-linejoin:miter;stroke:rgb(0%,25%,30%);stroke-opacity:1;stroke-miterlimit:10;" d="M 12.316406 82.8125 L 119 64 "/>
<path style="fill:none;stroke-width:0.25;stroke-linecap:butt;stroke-linejoin:miter;stroke:rgb(0%,25%,30%);stroke-opacity:1;stroke-miterlimit:10;" d="M 12.316406 82.8125 L 106.132812 99.351562 "/>
<path style="fill:none;stroke-width:0.25;stroke-linecap:butt;stroke-linejoin:miter;stroke:rgb(0%,25%,30%);stroke-opacity:1;stroke-miterlimit:10;" d="M 12.316406 82.8125 L 73.550781 118.164062 "/>
<path style="fill:none;stroke-width:0.25;stroke-linecap:butt;stroke-linejoin:miter;stroke:rgb(0%,25%,30%);stroke-opacity:1;stroke-miterlimit:10;" d="M 12.316406 82.8125 L 36.5 111.632812 "/>
<path style="fill:none;stroke-width:0.25;stroke-linecap:butt;stroke-linejoin:miter;stroke:rgb(0%,25%,30%);stroke-opacity:1;stroke-miterlimit:10;" d="M 12.316406 82.8125 L 12.316406 82.8125 "/>
<path style="fill:none;stroke-width:0.25;stroke-linecap:butt;stroke-linejoin:miter;stroke:rgb(0%,25%,30%);stroke-opacity:1;stroke-miterlimit:10;" d="M 12.316406 82.8125 L 12.316406 45.1875 "/>
<path style="fill:none;stroke-width:0.25;stroke-linecap:butt;stroke-linejoin:miter;stroke:rgb(0%,25%,30%);stroke-opacity:1;stroke-miterlimit:10;" d="M 12.316406 82.8125 L 36.5 16.367188 "/>
<path style="fill:none;stroke-width:0.25;stroke-linecap:butt;stroke-linejoin:miter;stroke:rgb(0%,25%,30%);stroke-opacity:1;stroke-miterlimit:10;" d="M 12.316406 82.8125 L 73.550781 9.835938 "/>
<path style="fill:none;stroke-width:0.25;stroke-linecap:butt;stroke-linejoin:miter;stroke:rgb(0%,25%,30%);stroke-opacity:1;stroke-miterlimit:10;" d="M 12.316406 82.8125 L 106.132812 28.648438 "/>
<path style="fill:none;stroke-width:0.25;stroke-linecap:butt;stroke-linejoin:miter;stroke:rgb(0%,25%,30%);stroke-opacity:1;stroke-miterlimit:10;" d="M 12.316406 45.1875 L 119 64 "/>
<path style="fill:none;stroke-width:0.25;stroke-linecap:butt;stroke-linejoin:miter;stroke:rgb(0%,25%,30%);stroke-opacity:1;stroke-miterlimit:10;" d="M 12.316406 45.1875 L 106.132812 99.351562 "/>
<path style="fill:none;stroke-width:0.25;stroke-linecap:butt;stroke-linejoin:miter;stroke:rgb(0%,25%,30%);stroke-opacity:1;stroke-miterlimit:10;" d="M 12.316406 45.1875 L 73.550781 118.164062 "/>
<path style="fill:none;stroke-width:0.25;stroke-linecap:butt;stroke-linejoin:miter;stroke:rgb(0%,25%,30%);stroke-opacity:1;stroke-miterlimit:10;" d="M 12.316406 45.1875 L 36.5 111.632812 "/>
<path style="fill:none;stroke-width:0.25;stroke-linecap:butt;stroke-linejoin:miter;stroke:rgb(0%,25%,30%);stroke-opacity:1;stroke-miterlimit:10;" d="M 12.316406 45.1875 L 12.316406 82.8125 "/>
<path style="fill:none;stroke-width:0.25;stroke-linecap:butt;stroke-linejoin:miter;stroke:rgb(0%,25%,30%);stroke-opacity:1;stroke-miterlimit:10;" d="M 12.316406 45.1875 L 12.316406 45.1875 "/>
<path style="fill:none;stroke-width:0.25;stroke-linecap:butt;stroke-linejoin:miter;stroke:rgb(0%,25%,30%);stroke-opacity:1;stroke-miterlimit:10;" d="M 12.316406 45.1875 L 36.5 16.367188 "/>
<path style="fill:none;stroke-width:0.25;stroke-linecap:butt;stroke-linejoin:miter;stroke:rgb(0%,25%,30%);stroke-opacity:1;stroke-miterlimit:10;" d="M 12.316406 45.1875 L 73.550781 9.835938 "/>
<path style="fill:none;stroke-width:0.25;stroke-linecap:butt;stroke-linejoin:miter;stroke:rgb(0%,25%,30%);stroke-opacity:1;stroke-miterlimit:10;" d="M 12.316406 45.1875 L 106.132812 28.648438 "/>
<path style="fill:none;stroke-width:0.25;stroke-linecap:butt;stroke-linejoin:miter;stroke:rgb(0%,25%,30%);stroke-opacity:1;stroke-miterlimit:10;" d="M 36.5 16.367188 L 119 64 "/>
<path style="fill:none;stroke-width:0.25;stroke-linecap:butt;stroke-linejoin:miter;stroke:rgb(0%,25%,30%);stroke-opacity:1;stroke-miterlimit:10;" d="M 36.5 16.367188 L 106.132812 99.351562 "/>
<path style="fill:none;stroke-width:0.25;stroke-linecap:butt;stroke-linejoin:miter;stroke:rgb(0%,25%,30%);stroke-opacity:1;stroke-miterlimit:10;" d="M 36.5 16.367188 L 73.550781 118.164062 "/>
<path style="fill:none;stroke-width:0.25;stroke-linecap:butt;stroke-linejoin:miter;stroke:rgb(0%,25%,30%);stroke-opacity:1;stroke-miterlimit:10;" d="M 36.5 16.367188 L 36.5 111.632812 "/>
<path style="fill:none;stroke-width:0.25;stroke-linecap:butt;stroke-linejoin:miter;stroke:rgb(0%,25%,30%);stroke-opacity:1;stroke-miterlimit:10;" d="M 36.5 16.367188 L 12.316406 82.8125 "/>
<path style="fill:none;stroke-width:0.25;stroke-linecap:butt;stroke-linejoin:miter;stroke:rgb(0%,25%,30%);stroke-opacity:1;stroke-miterlimit:10;" d="M 36.5 16.367188 L 12.316406 45.1875 "/>
<path style="fill:none;stroke-width:0.25;stroke-linecap:butt;stroke-linejoin:miter;stroke:rgb(0%,25%,30%);stroke-opacity:1;stroke-miterlimit:10;" d="M 36.5 16.367188 L 36.5 16.367188 "/>
<path style="fill:none;stroke-width:0.25;stroke-linecap:butt;stroke-linejoin:miter;stroke:rgb(0%,25%,30%);stroke-opacity:1;stroke-miterlimit:10;" d="M 36.5 16.367188 L 73.550781 9.835938 "/>
<path style="fill:none;stroke-width:0.25;stroke-linecap:butt;stroke-linejoin:miter;stroke:rgb(0%,25%,30%);stroke-opacity:1;stroke-miterlimit:10;" d="M 36.5 16.367188 L 106.132812 28.648438 "/>
<path style="fill:none;stroke-width:0.25;stroke-linecap:butt;stroke-linejoin:miter;stroke:rgb(0%,25%,30%);stroke-opacity:1;stroke-miterlimit:10;" d="M 73.550781 9.835938 L 119 64 "/>
<path style="fill:none;stroke-width:0.25;stroke-linecap:butt;stroke-linejoin:miter;stroke:rgb(0%,25%,30%);stroke-opacity:1;stroke-miterlimit:10;" d="M 73.550781 9.835938 L 106.132812 99.351562 "/>
<path style="fill:none;stroke-width:0.25;stroke-linecap:butt;stroke-linejoin:miter;stroke:rgb(0%,25%,30%);stroke-opacity:1;stroke-miterlimit:10;" d="M 73.550781 9.835938 L 73.550781 118.164062 "/>
<path style="fill:none;stroke-width:0.25;stroke-linecap:butt;stroke-linejoin:miter;stroke:rgb(0%,25%,30%);stroke-opacity:1;stroke-miterlimit:10;" d="M 73.550781 9.835938 L 36.5 111.632812 "/>
<path style="fill:none;stroke-width:0.25;stroke-linecap:butt;stroke-linejoin:miter;stroke:rgb(0%,25%,30%);stroke-opacity:1;stroke-miterlimit:10;" d="M 73.550781 9.835938 L 12.316406 82.8125 "/>
<path style="fill:none;stroke-width:0.25;stroke-linecap:butt;stroke-linejoin:miter;stroke:rgb(0%,25%,30%);stroke-opacity:1;stroke-miterlimit:10;" d="M 73.550781 9.835938 L 12.316406 45.1875 "/>
<path style="fill:none;stroke-width:0.25;stroke-linecap:butt;stroke-linejoin:miter;stroke:rgb(0%,25%,30%);stroke-opacity:1;stroke-miterlimit:10;" d="M 73.550781 9.835938 L 36.5 16.367188 "/>
<path style="fill:none;stroke-width:0.25;stroke-linecap:butt;stroke-linejoin:miter;stroke:rgb(0%,25%,30%);stroke-opacity:1;stroke-miterlimit:10;" d="M 73.550781 9.835938 L 73.550781 9.835938 "/>
<path style="fill:none;stroke-width:0.25;stroke-linecap:butt;stroke-linejoin:miter;stroke:rgb(0%,25%,30%);stroke-opacity:1;stroke-miterlimit:10;" d="M 73.550781 9.835938 L 106.132812 28.648438 "/>
<path style="fill:none;stroke-width:0.25;stroke-linecap:butt;stroke-linejoin:miter;stroke:rgb(0%,25%,30%);stroke-opacity:1;stroke-miterlimit:10;" d="M 106.132812 28.648438 L 119 64 "/>
<path style="fill:none;stroke-width:0.25;stroke-linecap:butt;stroke-linejoin:miter;stroke:rgb(0%,25%,30%);stroke-opacity:1;stroke-miterlimit:10;" d="M 106.132812 28.648438 L 106.132812 99.351562 "/>
<path style="fill:none;stroke-width:0.25;stroke-linecap:butt;stroke-linejoin:miter;stroke:rgb(0%,25%,30%);stroke-opacity:1;stroke-miterlimit:10;" d="M 106.132812 28.648438 L 73.550781 118.164062 "/>
<path style="fill:none;stroke-width:0.25;stroke-linecap:butt;stroke-linejoin:miter;stroke:rgb(0%,25%,30%);stroke-opacity:1;stroke-miterlimit:10;" d="M 106.132812 28.648438 L 36.5 111.632812 "/>
<path style="fill:none;stroke-width:0.25;stroke-linecap:butt;stroke-linejoin:miter;stroke:rgb(0%,25%,30%);stroke-opacity:1;stroke-miterlimit:10;" d="M 106.132812 28.648438 L 12.316406 82.8125 "/>
<path style="fill:none;stroke-width:0.25;stroke-linecap:butt;stroke-linejoin:miter;stroke:rgb(0%,25%,30%);stroke-opacity:1;stroke-miterlimit:10;" d="M 106.132812 28.648438 L 12.316406 45.1875 "/>
<path style="fill:none;stroke-width:0.25;stroke-linecap:butt;stroke-linejoin:miter;stroke:rgb(0%,25%,30%);stroke-opacity:1;stroke-miterlimit:10;" d="M 106.132812 28.648438 L 36.5 16.367188 "/>
<path style="fill:none;stroke-width:0.25;stroke-linecap:butt;stroke-linejoin:miter;stroke:rgb(0%,25%,30%);stroke-opacity:1;stroke-miterlimit:10;" d="M 106.132812 28.648438 L 73.550781 9.835938 "/>
<path style="fill:none;stroke-width:0.25;stroke-linecap:butt;stroke-linejoin:miter;stroke:rgb(0%,25%,30%);stroke-opacity:1;stroke-miterlimit:10;" d="M 106.132812 28.648438 L 106.132812 28.648438 "/>
<path style=" stroke:none;fill-rule:nonzero;fill:rgb(100%,0%,0%);fill-opacity:1;" d="M 124 64 C 124 70.667969 114 70.667969 114 64 C 114 57.332031 124 57.332031 124 64 "/>
<path style=" stroke:none;fill-rule:nonzero;fill:rgb(18.87902%,0%,100%);fill-opacity:1;" d="M 111.132812 99.351562 C 111.132812 106.019531 101.132812 106.019531 101.132812 99.351562 C 101.132812 92.6875 111.132812 92.6875 111.132812 99.351562 "/>
<path style=" stroke:none;fill-rule:nonzero;fill:rgb(0%,100%,37.758041%);fill-opacity:1;" d="M 78.550781 118.164062 C 78.550781 124.832031 68.550781 124.832031 68.550781 118.164062 C 68.550781 111.496094 78.550781 111.496094 78.550781 118.164062 "/>
<path style=" stroke:none;fill-rule:nonzero;fill:rgb(100%,56.637061%,0%);fill-opacity:1;" d="M 41.5 111.632812 C 41.5 118.296875 31.5 118.296875 31.5 111.632812 C 31.5 104.964844 41.5 104.964844 41.5 111.632812 "/>
<path style=" stroke:none;fill-rule:nonzero;fill:rgb(75.516082%,0%,100%);fill-opacity:1;" d="M 17.316406 82.8125 C 17.316406 89.476562 7.316406 89.476562 7.316406 82.8125 C 7.316406 76.144531 17.316406 76.144531 17.316406 82.8125 "/>
<path style=" stroke:none;fill-rule:nonzero;fill:rgb(0%,100%,94.395102%);fill-opacity:1;" d="M 17.316406 45.1875 C 17.316406 51.855469 7.316406 51.855469 7.316406 45.1875 C 7.316406 38.523438 17.316406 38.523438 17.316406 45.1875 "/>
<path style=" stroke:none;fill-rule:nonzero;fill:rgb(86.725877%,100%,0%);fill-opacity:1;" d="M 41.5 16.367188 C 41.5 23.035156 31.5 23.035156 31.5 16.367188 C 31.5 9.703125 41.5 9.703125 41.5 16.367188 "/>
<path style=" stroke:none;fill-rule:nonzero;fill:rgb(100%,0%,67.846857%);fill-opacity:1;" d="M 78.550781 9.835938 C 78.550781 16.503906 68.550781 16.503906 68.550781 9.835938 C 68.550781 3.167969 78.550781 3.167969 78.550781 9.835938 "/>
<path style=" stroke:none;fill-rule:nonzero;fill:rgb(0%,48.967836%,100%);fill-opacity:1;" d="M 111.132812 28.648438 C 111.132812 35.3125 101.132812 35.3125 101.132812 28.648438 C 101.132812 21.980469 111.132812 21.980469 111.132812 28.648438 "/>
</g>
</svg>
