<?xml version="1.0" encoding="UTF-8"?>
<svg xmlns="http://www.w3.org/2000/svg" xmlns:xlink="http://www.w3.org/1999/xlink" width="256pt" height="256pt" viewBox="0 0 256 256" version="1.1">
<g id="surface25">
<path style="fill:none;stroke-width:0.25;stroke-linecap:butt;stroke-linejoin:miter;stroke:rgb(0%,25%,30%);stroke-opacity:1;stroke-miterlimit:10;" d="M 247 128 L 247 128 "/>
<path style="fill:none;stroke-width:0.25;stroke-linecap:butt;stroke-linejoin:miter;stroke:rgb(0%,25%,30%);stroke-opacity:1;stroke-miterlimit:10;" d="M 247 128 L 219.160156 204.492188 "/>
<path style="fill:none;stroke-width:0.25;stroke-linecap:butt;stroke-linejoin:miter;stroke:rgb(0%,25%,30%);stroke-opacity:1;stroke-miterlimit:10;" d="M 247 128 L 148.664062 245.191406 "/>
<path style="fill:none;stroke-width:0.25;stroke-linecap:butt;stroke-linejoin:miter;stroke:rgb(0%,25%,30%);stroke-opacity:1;stroke-miterlimit:10;" d="M 247 128 L 68.5 231.058594 "/>
<path style="fill:none;stroke-width:0.25;stroke-linecap:butt;stroke-linejoin:miter;stroke:rgb(0%,25%,30%);stroke-opacity:1;stroke-miterlimit:10;" d="M 247 128 L 16.175781 168.699219 "/>
<path style="fill:none;stroke-width:0.25;stroke-linecap:butt;stroke-linejoin:miter;stroke:rgb(0%,25%,30%);stroke-opacity:1;stroke-miterlimit:10;" d="M 247 128 L 16.175781 87.300781 "/>
<path style="fill:none;stroke-width:0.25;stroke-linecap:butt;stroke-linejoin:miter;stroke:rgb(0%,25%,30%);stroke-opacity:1;stroke-miterlimit:10;" d="M 247 128 L 68.5 24.941406 "/>
<path style="fill:none;stroke-width:0.25;stroke-linecap:butt;stroke-linejoin:miter;stroke:rgb(0%,25%,30%);stroke-opacity:1;stroke-miterlimit:10;" d="M 247 128 L 148.664062 10.808594 "/>
<path style="fill:none;stroke-width:0.25;stroke-linecap:butt;stroke-linejoin:miter;stroke:rgb(0%,25%,30%);stroke-opacity:1;stroke-miterlimit:10;" d="M 247 128 L 219.160156 51.507812 "/>
<path style="fill:none;stroke-width:0.25;stroke-linecap:butt;stroke-linejoin:miter;stroke:rgb(0%,25%,30%);stroke-opacity:1;stroke-miterlimit:10;" d="M 219.160156 204.492188 L 247 128 "/>
<path style="fill:none;stroke-width:0.25;stroke-linecap:butt;stroke-linejoin:miter;stroke:rgb(0%,25%,30%);stroke-opacity:1;stroke-miterlimit:10;" d="M 219.160156 204.492188 L 219.160156 204.492188 "/>
<path style="fill:none;stroke-width:0.25;stroke-linecap:butt;stroke-linejoin:miter;stroke:rgb(0%,25%,30%);stroke-opacity:1;stroke-miterlimit:10;" d="M 219.160156 204.492188 L 148.664062 245.191406 "/>
<path style="fill:none;stroke-width:0.25;stroke-linecap:butt;stroke-linejoin:miter;stroke:rgb(0%,25%,30%);stroke-opacity:1;stroke-miterlimit:10;" d="M 219.160156 204.492188 L 68.5 231.058594 "/>
<path style="fill:none;stroke-width:0.25;stroke-linecap:butt;stroke-linejoin:miter;stroke:rgb(0%,25%,30%);stroke-opacity:1;stroke-miterlimit:10;" d="M 219.160156 204.492188 L 16.175781 168.699219 "/>
<path style="fill:none;stroke-width:0.25;stroke-linecap:butt;stroke-linejoin:miter;stroke:rgb(0%,25%,30%);stroke-opacity:1;stroke-miterlimit:10;" d="M 219.160156 204.492188 L 16.175781 87.300781 "/>
<path style="fill:none;stroke-width:0.25;stroke-linecap:butt;stroke-linejoin:miter;stroke:rgb(0%,25%,30%);stroke-opacity:1;stroke-miterlimit:10;" d="M 219.160156 204.492188 L 68.5 24.941406 "/>
<path style="fill:none;stroke-width:0.25;stroke-linecap:butt;stroke-linejoin:miter;stroke:rgb(0%,25%,30%);stroke-opacity:1;stroke-miterlimit:10;" d="M 219.160156 204.492188 L 148.664062 10.808594 "/>
<path style="fill:none;stroke-width:0.25;stroke-linecap:butt;stroke-linejoin:miter;stroke:rgb(0%,25%,30%);stroke-opacity:1;stroke-miterlimit:10;" d="M 219.160156 204.492188 L 219.160156 51.507812 "/>
<path style="fill:none;stroke-width:0.25;stroke-linecap:butt;stroke-linejoin:miter;stroke:rgb(0%,25%,30%);stroke-opacity:1;stroke-miterlimit:10;" d="M 148.664062 245.191406 L 247 128 "/>
<path style="fill:none;stroke-width:0.25;stroke-linecap:butt;stroke-linejoin:miter;stroke:rgb(0%,25%,30%);stroke-opacity:1;stroke-miterlimit:10;" d="M 148.664062 245.191406 L 219.160156 204.492188 "/>
<path style="fill:none;stroke-width:0.25;stroke-linecap:butt;stroke-linejoin:miter;stroke:rgb(0%,25%,30%);stroke-opacity:1;stroke-miterlimit:10;" d="M 148.664062 245.191406 L 148.664062 245.191406 "/>
<path style="fill:none;stroke-width:0.25;stroke-linecap:butt;stroke-linejoin:miter;stroke:rgb(0%,25%,30%);stroke-opacity:1;stroke-miterlimit:10;" d="M 148.664062 245.191406 L 68.5 231.058594 "/>
<path style="fill:none;stroke-width:0.25;stroke-linecap:butt;stroke-linejoin:miter;stroke:rgb(0%,25%,30%);stroke-opacity:1;stroke-miterlimit:10;" d="M 148.664062 245.191406 L 16.175781 168.699219 "/>
<path style="fill:none;stroke-width:0.25;stroke-linecap:butt;stroke-linejoin:miter;stroke:rgb(0%,25%,30%);stroke-opacity:1;stroke-miterlimit:10;" d="M 148.664062 245.191406 L 16.175781 87.300781 "/>
<path style="fill:none;stroke-width:0.25;stroke-linecap:butt;stroke-linejoin:miter;stroke:rgb(0%,25%,30%);stroke-opacity:1;stroke-miterlimit:10;" d="M 148.664062 245.191406 L 68.5 24.941406 "/>
<path style="fill:none;stroke-width:0.25;stroke-linecap:butt;stroke-linejoin:miter;stroke:rgb(0%,25%,30%);stroke-opacity:1;stroke-miterlimit:10;" d="M 148.664062 245.191406 L 148.664062 10.808594 "/>
<path style="fill:none;stroke-width:0.25;stroke-linecap:butt;stroke-linejoin:miter;stroke:rgb(0%,25%,30%);stroke-opacity:1;stroke-miterlimit:10;" d="M 148.664062 245.191406 L 219.160156 51.507812 "/>
<path style="fill:none;stroke-width:0.25;stroke-linecap:butt;stroke-linejoin:miter;stroke:rgb(0%,25%,30%);stroke-opacity:1;stroke-miterlimit:10;" d="M 68.5 231.058594 L 247 128 "/>
<path style="fill:none;stroke-width:0.25;stroke-linecap:butt;stroke-linejoin:miter;stroke:rgb(0%,25%,30%);stroke-opacity:1;stroke-miterlimit:10;" d="M 68.5 231.058594 L 219.160156 204.492188 "/>
<path style="fill:none;stroke-width:0.25;stroke-linecap:butt;stroke-linejoin:miter;stroke:rgb(0%,25%,30%);stroke-opacity:1;stroke-miterlimit:10;" d="M 68.5 231.058594 L 148.664062 245.191406 "/>
<path style="fill:none;stroke-width:0.25;stroke-linecap:butt;stroke-linejoin:miter;stroke:rgb(0%,25%,30%);stroke-opacity:1;stroke-miterlimit:10;" d="M 68.5 231.058594 L 68.5 231.058594 "/>
<path style="fill:none;stroke-width:0.25;stroke-linecap:butt;stroke-linejoin:miter;stroke:rgb(0%,25%,30%);stroke-opacity:1;stroke-miterlimit:10;" d="M 68.5 231.058594 L 16.175781 168.699219 "/>
<path style="fill:none;stroke-width:0.25;stroke-linecap:butt;stroke-linejoin:miter;stroke:rgb(0%,25%,30%);stroke-opacity:1;stroke-miterlimit:10;" d="M 68.5 231.058594 L 16.175781 87.300781 "/>
<path style="fill:none;stroke-width:0.25;stroke-linecap:butt;stroke-linejoin:miter;stroke:rgb(0%,25%,30%);stroke-opacity:1;stroke-miterlimit:10;" d="M 68.5 231.058594 L 68.5 24.941406 "/>
<path style="fill:none;stroke-width:0.25;stroke-linecap:butt;stroke-linejoin:miter;stroke:rgb(0%,25%,30%);stroke-opacity:1;stroke-miterlimit:10;" d="M 68.5 231.058594 L 148.664062 10.808594 "/>
<path style="fill:none;stroke-width:0.25;stroke-linecap:butt;stroke-linejoin:miter;stroke:rgb(0%,25%,30%);stroke-opacity:1;stroke-miterlimit:10;" d="M 68.5 231.058594 L 219.160156 51.507812 "/>
<path style="fill:none;stroke-width:0.25;stroke-linecap:butt;stroke-linejoin:miter;stroke:rgb(0%,25%,30%);stroke-opacity:1;stroke-miterlimit:10;" d="M 16.175781 168.699219 L 247 128 "/>
<path style="fill:none;stroke-width:0.25;stroke-linecap:butt;stroke-linejoin:miter;stroke:rgb(0%,25%,30%);stroke-opacity:1;stroke-miterlimit:10;" d="M 16.175781 168.699219 L 219.160156 204.492188 "/>
<path style="fill:none;stroke-width:0.25;stroke-linecap:butt;stroke-linejoin:miter;stroke:rgb(0%,25%,30%);stroke-opacity:1;stroke-miterlimit:10;" d="M 16.175781 168.699219 L 148.664062 245.191406 "/>
<path style="fill:none;stroke-width:0.25;stroke-linecap:butt;stroke-linejoin:miter;stroke:rgb(0%,25%,30%);stroke-opacity:1;stroke-miterlimit:10;" d="M 16.175781 168.699219 L 68.5 231.058594 "/>
<path style="fill:none;stroke-width:0.25;stroke-linecap:butt;stroke-linejoin:miter;stroke:rgb(0%,25%,30%);stroke-opacity:1;stroke-miterlimit:10;" d="M 16.175781 168.699219 L 16.175781 168.699219 "/>
<path style="fill:none;stroke-width:0.25;stroke-linecap:butt;stroke-linejoin:miter;stroke:rgb(0%,25%,30%);stroke-opacity:1;stroke-miterlimit:10;" d="M 16.175781 168.699219 L 16.175781 87.300781 "/>
<path style="fill:none;stroke-width:0.25;stroke-linecap:butt;stroke-linejoin:miter;stroke:rgb(0%,25%,30%);stroke-opacity:1;stroke-miterlimit:10;" d="M 16.175781 168.699219 L 68.5 24.941406 "/>
<path style="fill:none;stroke-width:0.25;stroke-linecap:butt;stroke-linejoin:miter;stroke:rgb(0%,25%,30%);stroke-opacity:1;stroke-miterlimit:10;" d="M 16.175781 168.699219 L 148.664062 10.808594 "/>
<path style="fill:none;stroke-width:0.25;stroke-linecap:butt;stroke-linejoin:miter;stroke:rgb(0%,25%,30%);stroke-opacity:1;stroke-miterlimit:10;" d="M 16.175781 168.699219 L 219.160156 51.507812 "/>
<path style="fill:none;stroke-width:0.25;stroke-linecap:butt;stroke-linejoin:miter;stroke:rgb(0%,25%,30%);stroke-opacity:1;stroke-miterlimit:10;" d="M 16.175781 87.300781 L 247 128 "/>
<path style="fill:none;stroke-width:0.25;stroke-linecap:butt;stroke-linejoin:miter;stroke:rgb(0%,25%,30%);stroke-opacity:1;stroke-miterlimit:10;" d="M 16.175781 87.300781 L 219.160156 204.492188 "/>
<path style="fill:none;stroke-width:0.25;stroke-linecap:butt;stroke-linejoin:miter;stroke:rgb(0%,25%,30%);stroke-opacity:1;stroke-miterlimit:10;" d="M 16.175781 87.300781 L 148.664062 245.191406 "/>
<path style="fill:none;stroke-width:0.25;stroke-linecap:butt;stroke-linejoin:miter;stroke:rgb(0%,25%,30%);stroke-opacity:1;stroke-miterlimit:10;" d="M 16.175781 87.300781 L 68.5 231.058594 "/>
<path style="fill:none;stroke-width:0.25;stroke-linecap:butt;stroke-linejoin:miter;stroke:rgb(0%,25%,30%);stroke-opacity:1;stroke-miterlimit:10;" d="M 16.175781 87.300781 L 16.175781 168.699219 "/>
<path style="fill:none;stroke-width:0.25;stroke-linecap:butt;stroke-linejoin:miter;stroke:rgb(0%,25%,30%);stroke-opacity:1;stroke-miterlimit:10;" d="M 16.175781 87.300781 L 16.175781 87.300781 "/>
<path style="fill:none;stroke-width:0.25;stroke-linecap:butt;stroke-linejoin:miter;stroke:rgb(0%,25%,30%);stroke-opacity:1;stroke-miterlimit:10;" d="M 16.175781 87.300781 L 68.5 24.941406 "/>
<path style="fill:none;stroke-width:0.25;stroke-linecap:butt;stroke-linejoin:miter;stroke:rgb(0%,25%,30%);stroke-opacity:1;stroke-miterlimit:10;" d="M 16.175781 87.300781 L 148.664062 10.808594 "/>
<path style="fill:none;stroke-width:0.25;stroke-linecap:butt;stroke-linejoin:miter;stroke:rgb(0%,25%,30%);stroke-opacity:1;stroke-miterlimit:10;" d="M 16.175781 87.300781 L 219.160156 51.507812 "/>
<path style="fill:none;stroke-width:0.25;stroke-linecap:butt;stroke-linejoin:miter;stroke:rgb(0%,25%,30%);stroke-opacity:1;stroke-miterlimit:10;" d="M 68.5 24.941406 L 247 128 "/>
<path style="fill:none;stroke-width:0.25;stroke-linecap:butt;stroke-linejoin:miter;stroke:rgb(0%,25%,30%);stroke-opacity:1;stroke-miterlimit:10;" d="M 68.5 24.941406 L 219.160156 204.492188 "/>
<path style="fill:none;stroke-width:0.25;stroke-linecap:butt;stroke-linejoin:miter;stroke:rgb(0%,25%,30%);stroke-opacity:1;stroke-miterlimit:10;" d="M 68.5 24.941406 L 148.664062 245.191406 "/>
<path style="fill:none;stroke-width:0.25;stroke-linecap:butt;stroke-linejoin:miter;stroke:rgb(0%,25%,30%);stroke-opacity:1;stroke-miterlimit:10;" d="M 68.5 24.941406 L 68.5 231.058594 "/>
<path style="fill:none;stroke-width:0.25;stroke-linecap:butt;stroke-linejoin:miter;stroke:rgb(0%,25%,30%);stroke-opacity:1;stroke-miterlimit:10;" d="M 68.5 24.941406 L 16.175781 168.699219 "/>
<path style="fill:none;stroke-width:0.25;stroke-linecap:butt;stroke-linejoin:miter;stroke:rgb(0%,25%,30%);stroke-opacity:1;stroke-miterlimit:10;" d="M 68.5 24.941406 L 16.175781 87.300781 "/>
<path style="fill:none;stroke-width:0.25;stroke-linecap:butt;stroke-linejoin:miter;stroke:rgb(0%,25%,30%);stroke-opacity:1;stroke-miterlimit:10;" d="M 68.5 24.941406 L 68.5 24.941406 "/>
<path style="fill:none;stroke-width:0.25;stroke-linecap:butt;stroke-linejoin:miter;stroke:rgb(0%,25%,30%);stroke-opacity:1;stroke-miterlimit:10;" d="M 68.5 24.941406 L 148.664062 10.808594 "/>
<path style="fill:none;stroke-width:0.25;stroke-linecap:butt;stroke-linejoin:miter;stroke:rgb(0%,25%,30%);stroke-opacity:1;stroke-miterlimit:10;" d="M 68.5 24.941406 L 219.160156 51.507812 "/>
<path style="fill:none;stroke-width:0.25;stroke-linecap:butt;stroke-linejoin:miter;stroke:rgb(0%,25%,30%);stroke-opacity:1;stroke-miterlimit:10;" d="M 148.664062 10.808594 L 247 128 "/>
<path style="fill:none;stroke-width:0.25;stroke-linecap:butt;stroke-linejoin:miter;stroke:rgb(0%,25%,30%);stroke-opacity:1;stroke-miterlimit:10;" d="M 148.664062 10.808594 L 219.160156 204.492188 "/>
<path style="fill:none;stroke-width:0.25;stroke-linecap:butt;stroke-linejoin:miter;stroke:rgb(0%,25%,30%);stroke-opacity:1;stroke-miterlimit:10;" d="M 148.664062 10.808594 L 148.664062 245.191406 "/>
<path style="fill:none;stroke-width:0.25;stroke-linecap:butt;stroke-linejoin:miter;stroke:rgb(0%,25%,30%);stroke-opacity:1;stroke-miterlimit:10;" d="M 148.664062 10.808594 L 68.5 231.058594 "/>
<path style="fill:none;stroke-width:0.25;stroke-linecap:butt;stroke-linejoin:miter;stroke:rgb(0%,25%,30%);stroke-opacity:1;stroke-miterlimit:10;" d="M 148.664062 10.808594 L 16.175781 168.699219 "/>
<path style="fill:none;stroke-width:0.25;stroke-linecap:butt;stroke-linejoin:miter;stroke:rgb(0%,25%,30%);stroke-opacity:1;stroke-miterlimit:10;" d="M 148.664062 10.808594 L 16.175781 87.300781 "/>
<path style="fill:none;stroke-width:0.25;stroke-linecap:butt;stroke-linejoin:miter;stroke:rgb(0%,25%,30%);stroke-opacity:1;stroke-miterlimit:10;" d="M 148.664062 10.808594 L 68.5 24.941406 "/>
<path style="fill:none;stroke-width:0.25;stroke-linecap:butt;stroke-linejoin:miter;stroke:rgb(0%,25%,30%);stroke-opacity:1;stroke-miterlimit:10;" d="M 148.664062 10.808594 L 148.664062 10.808594 "/>
<path style="fill:none;stroke-width:0.25;stroke-linecap:butt;stroke-linejoin:miter;stroke:rgb(0%,25%,30%);stroke-opacity:1;stroke-miterlimit:10;" d="M 148.664062 10.808594 L 219.160156 51.507812 "/>
<path style="fill:none;stroke-width:0.25;stroke-linecap:butt;stroke-linejoin:miter;stroke:rgb(0%,25%,30%);stroke-opacity:1;stroke-miterlimit:10;" d="M 219.160156 51.507812 L 247 128 "/>
<path style="fill:none;stroke-width:0.25;stroke-linecap:butt;stroke-linejoin:miter;stroke:rgb(0%,25%,30%);stroke-opacity:1;stroke-miterlimit:10;" d="M 219.160156 51.507812 L 219.160156 204.492188 "/>
<path style="fill:none;stroke-width:0.25;stroke-linecap:butt;stroke-linejoin:miter;stroke:rgb(0%,25%,30%);stroke-opacity:1;stroke-miterlimit:10;" d="M 219.160156 51.507812 L 148.664062 245.191406 "/>
<path style="fill:none;stroke-width:0.25;stroke-linecap:butt;stroke-linejoin:miter;stroke:rgb(0%,25%,30%);stroke-opacity:1;stroke-miterlimit:10;" d="M 219.160156 51.507812 L 68.5 231.058594 "/>
<path style="fill:none;stroke-width:0.25;stroke-linecap:butt;stroke-linejoin:miter;stroke:rgb(0%,25%,30%);stroke-opacity:1;stroke-miterlimit:10;" d="M 219.160156 51.507812 L 16.175781 168.699219 "/>
<path style="fill:none;stroke-width:0.25;stroke-linecap:butt;stroke-linejoin:miter;stroke:rgb(0%,25%,30%);stroke-opacity:1;stroke-miterlimit:10;" d="M 219.160156 51.507812 L 16.175781 87.300781 "/>
<path style="fill:none;stroke-width:0.25;stroke-linecap:butt;stroke-linejoin:miter;stroke:rgb(0%,25%,30%);stroke-opacity:1;stroke-miterlimit:10;" d="M 219.160156 51.507812 L 68.5 24.941406 "/>
<path style="fill:none;stroke-width:0.25;stroke-linecap:butt;stroke-linejoin:miter;stroke:rgb(0%,25%,30%);stroke-opacity:1;stroke-miterlimit:10;" d="M 219.160156 51.507812 L 148.664062 10.808594 "/>
<path style="fill:none;stroke-width:0.25;stroke-linecap:butt;stroke-linejoin:miter;stroke:rgb(0%,25%,30%);stroke-opacity:1;stroke-miterlimit:10;" d="M 219.160156 51.507812 L 219.160156 51.507812 "/>
<path style=" stroke:none;fill-rule:nonzero;fill:rgb(100%,0%,0%);fill-opacity:1;" d="M 252 128 C 252 134.667969 242 134.667969 242 128 C 242 121.332031 252 121.332031 252 128 "/>
<path style=" stroke:none;fill-rule:nonzero;fill:rgb(18.87902%,0%,100%);fill-opacity:1;" d="M 224.160156 204.492188 C 224.160156 211.160156 214.160156 211.160156 214.160156 204.492188 C 214.160156 197.824219 224.160156 197.824219 224.160156 204.492188 "/>
<path style=" stroke:none;fill-rule:nonzero;fill:rgb(0%,100%,37.758041%);fill-opacity:1;" d="M 153.664062 245.191406 C 153.664062 251.859375 143.664062 251.859375 143.664062 245.191406 C 143.664062 238.527344 153.664062 238.527344 153.664062 245.191406 "/>
<path style=" stroke:none;fill-rule:nonzero;fill:rgb(100%,56.637061%,0%);fill-opacity:1;" d="M 73.5 231.058594 C 73.5 237.722656 63.5 237.722656 63.5 231.058594 C 63.5 224.390625 73.5 224.390625 73.5 231.058594 "/>
<path style=" stroke:none;fill-rule:nonzero;fill:rgb(75.516082%,0%,100%);fill-opacity:1;" d="M 21.175781 168.699219 C 21.175781 175.367188 11.175781 175.367188 11.175781 168.699219 C 11.175781 162.035156 21.175781 162.035156 21.175781 168.699219 "/>
<path style=" stroke:none;fill-rule:nonzero;fill:rgb(0%,100%,94.395102%);fill-opacity:1;" d="M 21.175781 87.300781 C 21.175781 93.964844 11.175781 93.964844 11.175781 87.300781 C 11.175781 80.632812 21.175781 80.632812 21.175781 87.300781 "/>
<path style=" stroke:none;fill-rule:nonzero;fill:rgb(86.725877%,100%,0%);fill-opacity:1;" d="M 73.5 24.941406 C 73.5 31.609375 63.5 31.609375 63.5 24.941406 C 63.5 18.277344 73.5 18.277344 73.5 24.941406 "/>
<path style=" stroke:none;fill-rule:nonzero;fill:rgb(100%,0%,67.846857%);fill-opacity:1;" d="M 153.664062 10.808594 C 153.664062 17.472656 143.664062 17.472656 143.664062 10.808594 C 143.664062 4.140625 153.664062 4.140625 153.664062 10.808594 "/>
<path style=" stroke:none;fill-rule:nonzero;fill:rgb(0%,48.967836%,100%);fill-opacity:1;" d="M 224.160156 51.507812 C 224.160156 58.175781 214.160156 58.175781 214.160156 51.507812 C 214.160156 44.839844 224.160156 44.839844 224.160156 51.507812 "/>
</g>
</svg>
