<?xml version="1.0" encoding="UTF-8"?>
<svg xmlns="http://www.w3.org/2000/svg" xmlns:xlink="http://www.w3.org/1999/xlink" width="16pt" height="16pt" viewBox="0 0 16 16" version="1.1">
<g id="surface1">
<path style="fill:none;stroke-width:0.25;stroke-linecap:butt;stroke-linejoin:miter;stroke:rgb(0%,25%,30%);stroke-opacity:1;stroke-miterlimit:10;" d="M 15 8 L 15 8 "/>
<path style="fill:none;stroke-width:0.25;stroke-linecap:butt;stroke-linejoin:miter;stroke:rgb(0%,25%,30%);stroke-opacity:1;stroke-miterlimit:10;" d="M 15 8 L 10.164062 14.65625 "/>
<path style="fill:none;stroke-width:0.25;stroke-linecap:butt;stroke-linejoin:miter;stroke:rgb(0%,25%,30%);stroke-opacity:1;stroke-miterlimit:10;" d="M 15 8 L 2.335938 12.113281 "/>
<path style="fill:none;stroke-width:0.25;stroke-linecap:butt;stroke-linejoin:miter;stroke:rgb(0%,25%,30%);stroke-opacity:1;stroke-miterlimit:10;" d="M 15 8 L 2.335938 3.886719 "/>
<path style="fill:none;stroke-width:0.25;stroke-linecap:butt;stroke-linejoin:miter;stroke:rgb(0%,25%,30%);stroke-opacity:1;stroke-miterlimit:10;" d="M 15 8 L 10.164062 1.34375 "/>
<path style="fill:none;stroke-width:0.25;stroke-linecap:butt;stroke-linejoin:miter;stroke:rgb(0%,25%,30%);stroke-opacity:1;stroke-miterlimit:10;" d="M 10.164062 14.65625 L 15 8 "/>
<path style="fill:none;stroke-width:0.25;stroke-linecap:butt;stroke-linejoin:miter;stroke:rgb(0%,25%,30%);stroke-opacity:1;stroke-miterlimit:10;" d="M 10.164062 14.65625 L 10.164062 14.65625 "/>
<path style="fill:none;stroke-width:0.25;stroke-linecap:butt;stroke-linejoin:miter;stroke:rgb(0%,25%,30%);stroke-opacity:1;stroke-miterlimit:10;" d="M 10.164062 14.65625 L 2.335938 12.113281 "/>
<path style="fill:none;stroke-width:0.25;stroke-linecap:butt;stroke-linejoin:miter;stroke:rgb(0%,25%,30%);stroke-opacity:1;stroke-miterlimit:10;" d="M 10.164062 14.65625 L 2.335938 3.886719 "/>
<path style="fill:none;stroke-width:0.25;stroke-linecap:butt;stroke-linejoin:miter;stroke:rgb(0%,25%,30%);stroke-opacity:1;stroke-miterlimit:10;" d="M 10.164062 14.65625 L 10.164062 1.34375 "/>
<path style="fill:none;stroke-width:0.25;stroke-linecap:butt;stroke-linejoin:miter;stroke:rgb(0%,25%,30%);stroke-opacity:1;stroke-miterlimit:10;" d="M 2.335938 12.113281 L 15 8 "/>
<path style="fill:none;stroke-width:0.25;stroke-linecap:butt;stroke-linejoin:miter;stroke:rgb(0%,25%,30%);stroke-opacity:1;stroke-miterlimit:10;" d="M 2.335938 12.113281 L 10.164062 14.65625 "/>
<path style="fill:none;stroke-width:0.25;stroke-linecap:butt;stroke-linejoin:miter;stroke:rgb(0%,25%,30%);stroke-opacity:1;stroke-miterlimit:10;" d="M 2.335938 12.113281 L 2.335938 12.113281 "/>
<path style="fill:none;stroke-width:0.25;stroke-linecap:butt;stroke-linejoin:miter;stroke:rgb(0%,25%,30%);stroke-opacity:1;stroke-miterlimit:10;" d="M 2.335938 12.113281 L 2.335938 3.886719 "/>
<path style="fill:none;stroke-width:0.25;stroke-linecap:butt;stroke-linejoin:miter;stroke:rgb(0%,25%,30%);stroke-opacity:1;stroke-miterlimit:10;" d="M 2.335938 12.113281 L 10.164062 1.34375 "/>
<path style="fill:none;stroke-width:0.25;stroke-linecap:butt;stroke-linejoin:miter;stroke:rgb(0%,25%,30%);stroke-opacity:1;stroke-miterlimit:10;" d="M 2.335938 3.886719 L 15 8 "/>
<path style="fill:none;stroke-width:0.25;stroke-linecap:butt;stroke-linejoin:miter;stroke:rgb(0%,25%,30%);stroke-opacity:1;stroke-miterlimit:10;" d="M 2.335938 3.886719 L 10.164062 14.65625 "/>
<path style="fill:none;stroke-width:0.25;stroke-linecap:butt;stroke-linejoin:miter;stroke:rgb(0%,25%,30%);stroke-opacity:1;stroke-miterlimit:10;" d="M 2.335938 3.886719 L 2.335938 12.113281 "/>
<path style="fill:none;stroke-width:0.25;stroke-linecap:butt;stroke-linejoin:miter;stroke:rgb(0%,25%,30%);stroke-opacity:1;stroke-miterlimit:10;" d="M 2.335938 3.886719 L 2.335938 3.886719 "/>
<path style="fill:none;stroke-width:0.25;stroke-linecap:butt;stroke-linejoin:miter;stroke:rgb(0%,25%,30%);stroke-opacity:1;stroke-miterlimit:10;" d="M 2.335938 3.886719 L 10.164062 1.34375 "/>
<path style="fill:none;stroke-width:0.25;stroke-linecap:butt;stroke-linejoin:miter;stroke:rgb(0%,25%,30%);stroke-opacity:1;stroke-miterlimit:10;" d="M 10.164062 1.34375 L 15 8 "/>
<path style="fill:none;stroke-width:0.25;stroke-linecap:butt;stroke-linejoin:miter;stroke:rgb(0%,25%,30%);stroke-opacity:1;stroke-miterlimit:10;" d="M 10.164062 1.34375 L 10.164062 14.65625 "/>
<path style="fill:none;stroke-width:0.25;stroke-linecap:butt;stroke-linejoin:miter;stroke:rgb(0%,25%,30%);stroke-opacity:1;stroke-miterlimit:10;" d="M 10.164062 1.34375 L 2.335938 12.113281 "/>
<path style="fill:none;stroke-width:0.25;stroke-linecap:butt;stroke-linejoin:miter;stroke:rgb(0%,25%,30%);stroke-opacity:1;stroke-miterlimit:10;" d="M 10.164062 1.34375 L 2.335938 3.886719 "/>
<path style="fill:none;stroke-width:0.25;stroke-linecap:butt;stroke-linejoin:miter;stroke:rgb(0%,25%,30%);stroke-opacity:1;stroke-miterlimit:10;" d="M 10.164062 1.34375 L 10.164062 1.34375 "/>
<path style=" stroke:none;fill-rule:nonzero;fill:rgb(100%,0%,0%);fill-opacity:1;" d="M 16 8 C 16 9.332031 14 9.332031 14 8 C 14 6.667969 16 6.667969 16 8 "/>
<path style=" stroke:none;fill-rule:nonzero;fill:rgb(46.017763%,100%,0%);fill-opacity:1;" d="M 11.164062 14.65625 C 11.164062 15.992188 9.164062 15.992188 9.164062 14.65625 C 9.164062 13.324219 11.164062 13.324219 11.164062 14.65625 "/>
<path style=" stroke:none;fill-rule:nonzero;fill:rgb(0%,92.035526%,100%);fill-opacity:1;" d="M 3.335938 12.113281 C 3.335938 13.449219 1.335938 13.449219 1.335938 12.113281 C 1.335938 10.78125 3.335938 10.78125 3.335938 12.113281 "/>
<path style=" stroke:none;fill-rule:nonzero;fill:rgb(61.946711%,0%,100%);fill-opacity:1;" d="M 3.335938 3.886719 C 3.335938 5.21875 1.335938 5.21875 1.335938 3.886719 C 1.335938 2.550781 3.335938 2.550781 3.335938 3.886719 "/>
<path style=" stroke:none;fill-rule:nonzero;fill:rgb(100%,15.928947%,0%);fill-opacity:1;" d="M 11.164062 1.34375 C 11.164062 2.675781 9.164062 2.675781 9.164062 1.34375 C 9.164062 0.0078125 11.164062 0.0078125 11.164062 1.34375 "/>
</g>
</svg>
