<?xml version="1.0" encoding="UTF-8" standalone="no"?>
<!-- Created with Inkscape (http://www.inkscape.org/) -->

<svg
   xmlns:dc="http://purl.org/dc/elements/1.1/"
   xmlns:cc="http://creativecommons.org/ns#"
   xmlns:rdf="http://www.w3.org/1999/02/22-rdf-syntax-ns#"
   xmlns:svg="http://www.w3.org/2000/svg"
   xmlns="http://www.w3.org/2000/svg"
   xmlns:sodipodi="http://sodipodi.sourceforge.net/DTD/sodipodi-0.dtd"
   xmlns:inkscape="http://www.inkscape.org/namespaces/inkscape"
   id="svg2"
   version="1.1"
   inkscape:version="0.91 r13725"
   width="42"
   height="31"
   viewBox="0 0 42 31"
   sodipodi:docname="vitruvian-wave.svg">
  <metadata
     id="metadata8">
    <rdf:RDF>
      <cc:Work
         rdf:about="">
        <dc:format>image/svg+xml</dc:format>
        <dc:type
           rdf:resource="http://purl.org/dc/dcmitype/StillImage" />
        <dc:title></dc:title>
      </cc:Work>
    </rdf:RDF>
  </metadata>
  <defs
     id="defs6" />
  <sodipodi:namedview
     pagecolor="#ffffff"
     bordercolor="#666666"
     borderopacity="1"
     objecttolerance="10"
     gridtolerance="10"
     guidetolerance="10"
     inkscape:pageopacity="0"
     inkscape:pageshadow="2"
     inkscape:window-width="1366"
     inkscape:window-height="705"
     id="namedview4"
     showgrid="false"
     inkscape:zoom="7.0714286"
     inkscape:cx="24.252525"
     inkscape:cy="15.5"
     inkscape:window-x="0"
     inkscape:window-y="30"
     inkscape:window-maximized="1"
     inkscape:current-layer="svg2" />
  <path
     style="fill:none;fill-rule:evenodd;stroke:#6815ff;stroke-width:1px;stroke-linecap:butt;stroke-linejoin:miter;stroke-opacity:1"
     d="m -0.14141414,14.59596 c 3.90867684,3.999321 7.62383824,8.509047 12.80041814,10.908894 4.298953,1.734615 9.11771,2.464646 13.692784,1.544846 3.304292,-0.765865 6.762325,-3.236385 6.920314,-6.90586 0.327439,-5.433469 -4.791623,-10.7547628 -10.330414,-9.987925 -2.262583,0.284673 -4.65177,1.216854 -6.048982,3.089789 -1.26671,2.049255 -0.247065,5.19803 2.184441,5.784788 0.917259,0.534871 3.273049,-0.09613 1.171346,-0.760333 -1.783959,-1.226755 -1.789897,-4.236765 0.434158,-4.984607 2.515527,-1.50898 6.131601,-1.62949 8.243946,0.652191 2.014871,1.72278 3.687841,4.541345 2.605839,7.22144 -0.706829,2.18017 -2.739338,3.520507 -4.827835,4.183419 -5.190758,1.820314 -11.160676,0.09981 -15.202433,-3.453466 C 8.6156324,19.237078 7.6387543,14.633643 9.6604222,11.182642 11.507817,7.9686722 14.754906,5.7908179 18.06715,4.294044 24.382179,1.7511948 32.005942,3.5221302 36.791728,8.2965099 38.63012,9.9628097 40.320899,11.782017 42,13.606061"
     id="path4138"
     inkscape:connector-curvature="0" />
</svg>
