<?xml version="1.0" encoding="UTF-8"?>
<svg xmlns="http://www.w3.org/2000/svg" xmlns:xlink="http://www.w3.org/1999/xlink" width="64pt" height="64pt" viewBox="0 0 64 64" version="1.1">
<g id="surface17">
<path style="fill:none;stroke-width:0.25;stroke-linecap:butt;stroke-linejoin:miter;stroke:rgb(0%,25%,30%);stroke-opacity:1;stroke-miterlimit:10;" d="M 60 32 L 60 32 "/>
<path style="fill:none;stroke-width:0.25;stroke-linecap:butt;stroke-linejoin:miter;stroke:rgb(0%,25%,30%);stroke-opacity:1;stroke-miterlimit:10;" d="M 60 32 L 53.449219 50 "/>
<path style="fill:none;stroke-width:0.25;stroke-linecap:butt;stroke-linejoin:miter;stroke:rgb(0%,25%,30%);stroke-opacity:1;stroke-miterlimit:10;" d="M 60 32 L 36.863281 59.574219 "/>
<path style="fill:none;stroke-width:0.25;stroke-linecap:butt;stroke-linejoin:miter;stroke:rgb(0%,25%,30%);stroke-opacity:1;stroke-miterlimit:10;" d="M 60 32 L 18 56.25 "/>
<path style="fill:none;stroke-width:0.25;stroke-linecap:butt;stroke-linejoin:miter;stroke:rgb(0%,25%,30%);stroke-opacity:1;stroke-miterlimit:10;" d="M 60 32 L 5.6875 41.578125 "/>
<path style="fill:none;stroke-width:0.25;stroke-linecap:butt;stroke-linejoin:miter;stroke:rgb(0%,25%,30%);stroke-opacity:1;stroke-miterlimit:10;" d="M 60 32 L 5.6875 22.421875 "/>
<path style="fill:none;stroke-width:0.25;stroke-linecap:butt;stroke-linejoin:miter;stroke:rgb(0%,25%,30%);stroke-opacity:1;stroke-miterlimit:10;" d="M 60 32 L 18 7.75 "/>
<path style="fill:none;stroke-width:0.25;stroke-linecap:butt;stroke-linejoin:miter;stroke:rgb(0%,25%,30%);stroke-opacity:1;stroke-miterlimit:10;" d="M 60 32 L 36.863281 4.425781 "/>
<path style="fill:none;stroke-width:0.25;stroke-linecap:butt;stroke-linejoin:miter;stroke:rgb(0%,25%,30%);stroke-opacity:1;stroke-miterlimit:10;" d="M 60 32 L 53.449219 14 "/>
<path style="fill:none;stroke-width:0.25;stroke-linecap:butt;stroke-linejoin:miter;stroke:rgb(0%,25%,30%);stroke-opacity:1;stroke-miterlimit:10;" d="M 53.449219 50 L 60 32 "/>
<path style="fill:none;stroke-width:0.25;stroke-linecap:butt;stroke-linejoin:miter;stroke:rgb(0%,25%,30%);stroke-opacity:1;stroke-miterlimit:10;" d="M 53.449219 50 L 53.449219 50 "/>
<path style="fill:none;stroke-width:0.25;stroke-linecap:butt;stroke-linejoin:miter;stroke:rgb(0%,25%,30%);stroke-opacity:1;stroke-miterlimit:10;" d="M 53.449219 50 L 36.863281 59.574219 "/>
<path style="fill:none;stroke-width:0.25;stroke-linecap:butt;stroke-linejoin:miter;stroke:rgb(0%,25%,30%);stroke-opacity:1;stroke-miterlimit:10;" d="M 53.449219 50 L 18 56.25 "/>
<path style="fill:none;stroke-width:0.25;stroke-linecap:butt;stroke-linejoin:miter;stroke:rgb(0%,25%,30%);stroke-opacity:1;stroke-miterlimit:10;" d="M 53.449219 50 L 5.6875 41.578125 "/>
<path style="fill:none;stroke-width:0.25;stroke-linecap:butt;stroke-linejoin:miter;stroke:rgb(0%,25%,30%);stroke-opacity:1;stroke-miterlimit:10;" d="M 53.449219 50 L 5.6875 22.421875 "/>
<path style="fill:none;stroke-width:0.25;stroke-linecap:butt;stroke-linejoin:miter;stroke:rgb(0%,25%,30%);stroke-opacity:1;stroke-miterlimit:10;" d="M 53.449219 50 L 18 7.75 "/>
<path style="fill:none;stroke-width:0.25;stroke-linecap:butt;stroke-linejoin:miter;stroke:rgb(0%,25%,30%);stroke-opacity:1;stroke-miterlimit:10;" d="M 53.449219 50 L 36.863281 4.425781 "/>
<path style="fill:none;stroke-width:0.25;stroke-linecap:butt;stroke-linejoin:miter;stroke:rgb(0%,25%,30%);stroke-opacity:1;stroke-miterlimit:10;" d="M 53.449219 50 L 53.449219 14 "/>
<path style="fill:none;stroke-width:0.25;stroke-linecap:butt;stroke-linejoin:miter;stroke:rgb(0%,25%,30%);stroke-opacity:1;stroke-miterlimit:10;" d="M 36.863281 59.574219 L 60 32 "/>
<path style="fill:none;stroke-width:0.25;stroke-linecap:butt;stroke-linejoin:miter;stroke:rgb(0%,25%,30%);stroke-opacity:1;stroke-miterlimit:10;" d="M 36.863281 59.574219 L 53.449219 50 "/>
<path style="fill:none;stroke-width:0.25;stroke-linecap:butt;stroke-linejoin:miter;stroke:rgb(0%,25%,30%);stroke-opacity:1;stroke-miterlimit:10;" d="M 36.863281 59.574219 L 36.863281 59.574219 "/>
<path style="fill:none;stroke-width:0.25;stroke-linecap:butt;stroke-linejoin:miter;stroke:rgb(0%,25%,30%);stroke-opacity:1;stroke-miterlimit:10;" d="M 36.863281 59.574219 L 18 56.25 "/>
<path style="fill:none;stroke-width:0.25;stroke-linecap:butt;stroke-linejoin:miter;stroke:rgb(0%,25%,30%);stroke-opacity:1;stroke-miterlimit:10;" d="M 36.863281 59.574219 L 5.6875 41.578125 "/>
<path style="fill:none;stroke-width:0.25;stroke-linecap:butt;stroke-linejoin:miter;stroke:rgb(0%,25%,30%);stroke-opacity:1;stroke-miterlimit:10;" d="M 36.863281 59.574219 L 5.6875 22.421875 "/>
<path style="fill:none;stroke-width:0.25;stroke-linecap:butt;stroke-linejoin:miter;stroke:rgb(0%,25%,30%);stroke-opacity:1;stroke-miterlimit:10;" d="M 36.863281 59.574219 L 18 7.75 "/>
<path style="fill:none;stroke-width:0.25;stroke-linecap:butt;stroke-linejoin:miter;stroke:rgb(0%,25%,30%);stroke-opacity:1;stroke-miterlimit:10;" d="M 36.863281 59.574219 L 36.863281 4.425781 "/>
<path style="fill:none;stroke-width:0.25;stroke-linecap:butt;stroke-linejoin:miter;stroke:rgb(0%,25%,30%);stroke-opacity:1;stroke-miterlimit:10;" d="M 36.863281 59.574219 L 53.449219 14 "/>
<path style="fill:none;stroke-width:0.25;stroke-linecap:butt;stroke-linejoin:miter;stroke:rgb(0%,25%,30%);stroke-opacity:1;stroke-miterlimit:10;" d="M 18 56.25 L 60 32 "/>
<path style="fill:none;stroke-width:0.25;stroke-linecap:butt;stroke-linejoin:miter;stroke:rgb(0%,25%,30%);stroke-opacity:1;stroke-miterlimit:10;" d="M 18 56.25 L 53.449219 50 "/>
<path style="fill:none;stroke-width:0.25;stroke-linecap:butt;stroke-linejoin:miter;stroke:rgb(0%,25%,30%);stroke-opacity:1;stroke-miterlimit:10;" d="M 18 56.25 L 36.863281 59.574219 "/>
<path style="fill:none;stroke-width:0.25;stroke-linecap:butt;stroke-linejoin:miter;stroke:rgb(0%,25%,30%);stroke-opacity:1;stroke-miterlimit:10;" d="M 18 56.25 L 18 56.25 "/>
<path style="fill:none;stroke-width:0.25;stroke-linecap:butt;stroke-linejoin:miter;stroke:rgb(0%,25%,30%);stroke-opacity:1;stroke-miterlimit:10;" d="M 18 56.25 L 5.6875 41.578125 "/>
<path style="fill:none;stroke-width:0.25;stroke-linecap:butt;stroke-linejoin:miter;stroke:rgb(0%,25%,30%);stroke-opacity:1;stroke-miterlimit:10;" d="M 18 56.25 L 5.6875 22.421875 "/>
<path style="fill:none;stroke-width:0.25;stroke-linecap:butt;stroke-linejoin:miter;stroke:rgb(0%,25%,30%);stroke-opacity:1;stroke-miterlimit:10;" d="M 18 56.25 L 18 7.75 "/>
<path style="fill:none;stroke-width:0.25;stroke-linecap:butt;stroke-linejoin:miter;stroke:rgb(0%,25%,30%);stroke-opacity:1;stroke-miterlimit:10;" d="M 18 56.25 L 36.863281 4.425781 "/>
<path style="fill:none;stroke-width:0.25;stroke-linecap:butt;stroke-linejoin:miter;stroke:rgb(0%,25%,30%);stroke-opacity:1;stroke-miterlimit:10;" d="M 18 56.25 L 53.449219 14 "/>
<path style="fill:none;stroke-width:0.25;stroke-linecap:butt;stroke-linejoin:miter;stroke:rgb(0%,25%,30%);stroke-opacity:1;stroke-miterlimit:10;" d="M 5.6875 41.578125 L 60 32 "/>
<path style="fill:none;stroke-width:0.25;stroke-linecap:butt;stroke-linejoin:miter;stroke:rgb(0%,25%,30%);stroke-opacity:1;stroke-miterlimit:10;" d="M 5.6875 41.578125 L 53.449219 50 "/>
<path style="fill:none;stroke-width:0.25;stroke-linecap:butt;stroke-linejoin:miter;stroke:rgb(0%,25%,30%);stroke-opacity:1;stroke-miterlimit:10;" d="M 5.6875 41.578125 L 36.863281 59.574219 "/>
<path style="fill:none;stroke-width:0.25;stroke-linecap:butt;stroke-linejoin:miter;stroke:rgb(0%,25%,30%);stroke-opacity:1;stroke-miterlimit:10;" d="M 5.6875 41.578125 L 18 56.25 "/>
<path style="fill:none;stroke-width:0.25;stroke-linecap:butt;stroke-linejoin:miter;stroke:rgb(0%,25%,30%);stroke-opacity:1;stroke-miterlimit:10;" d="M 5.6875 41.578125 L 5.6875 41.578125 "/>
<path style="fill:none;stroke-width:0.25;stroke-linecap:butt;stroke-linejoin:miter;stroke:rgb(0%,25%,30%);stroke-opacity:1;stroke-miterlimit:10;" d="M 5.6875 41.578125 L 5.6875 22.421875 "/>
<path style="fill:none;stroke-width:0.25;stroke-linecap:butt;stroke-linejoin:miter;stroke:rgb(0%,25%,30%);stroke-opacity:1;stroke-miterlimit:10;" d="M 5.6875 41.578125 L 18 7.75 "/>
<path style="fill:none;stroke-width:0.25;stroke-linecap:butt;stroke-linejoin:miter;stroke:rgb(0%,25%,30%);stroke-opacity:1;stroke-miterlimit:10;" d="M 5.6875 41.578125 L 36.863281 4.425781 "/>
<path style="fill:none;stroke-width:0.25;stroke-linecap:butt;stroke-linejoin:miter;stroke:rgb(0%,25%,30%);stroke-opacity:1;stroke-miterlimit:10;" d="M 5.6875 41.578125 L 53.449219 14 "/>
<path style="fill:none;stroke-width:0.25;stroke-linecap:butt;stroke-linejoin:miter;stroke:rgb(0%,25%,30%);stroke-opacity:1;stroke-miterlimit:10;" d="M 5.6875 22.421875 L 60 32 "/>
<path style="fill:none;stroke-width:0.25;stroke-linecap:butt;stroke-linejoin:miter;stroke:rgb(0%,25%,30%);stroke-opacity:1;stroke-miterlimit:10;" d="M 5.6875 22.421875 L 53.449219 50 "/>
<path style="fill:none;stroke-width:0.25;stroke-linecap:butt;stroke-linejoin:miter;stroke:rgb(0%,25%,30%);stroke-opacity:1;stroke-miterlimit:10;" d="M 5.6875 22.421875 L 36.863281 59.574219 "/>
<path style="fill:none;stroke-width:0.25;stroke-linecap:butt;stroke-linejoin:miter;stroke:rgb(0%,25%,30%);stroke-opacity:1;stroke-miterlimit:10;" d="M 5.6875 22.421875 L 18 56.25 "/>
<path style="fill:none;stroke-width:0.25;stroke-linecap:butt;stroke-linejoin:miter;stroke:rgb(0%,25%,30%);stroke-opacity:1;stroke-miterlimit:10;" d="M 5.6875 22.421875 L 5.6875 41.578125 "/>
<path style="fill:none;stroke-width:0.25;stroke-linecap:butt;stroke-linejoin:miter;stroke:rgb(0%,25%,30%);stroke-opacity:1;stroke-miterlimit:10;" d="M 5.6875 22.421875 L 5.6875 22.421875 "/>
<path style="fill:none;stroke-width:0.25;stroke-linecap:butt;stroke-linejoin:miter;stroke:rgb(0%,25%,30%);stroke-opacity:1;stroke-miterlimit:10;" d="M 5.6875 22.421875 L 18 7.75 "/>
<path style="fill:none;stroke-width:0.25;stroke-linecap:butt;stroke-linejoin:miter;stroke:rgb(0%,25%,30%);stroke-opacity:1;stroke-miterlimit:10;" d="M 5.6875 22.421875 L 36.863281 4.425781 "/>
<path style="fill:none;stroke-width:0.25;stroke-linecap:butt;stroke-linejoin:miter;stroke:rgb(0%,25%,30%);stroke-opacity:1;stroke-miterlimit:10;" d="M 5.6875 22.421875 L 53.449219 14 "/>
<path style="fill:none;stroke-width:0.25;stroke-linecap:butt;stroke-linejoin:miter;stroke:rgb(0%,25%,30%);stroke-opacity:1;stroke-miterlimit:10;" d="M 18 7.75 L 60 32 "/>
<path style="fill:none;stroke-width:0.25;stroke-linecap:butt;stroke-linejoin:miter;stroke:rgb(0%,25%,30%);stroke-opacity:1;stroke-miterlimit:10;" d="M 18 7.75 L 53.449219 50 "/>
<path style="fill:none;stroke-width:0.25;stroke-linecap:butt;stroke-linejoin:miter;stroke:rgb(0%,25%,30%);stroke-opacity:1;stroke-miterlimit:10;" d="M 18 7.75 L 36.863281 59.574219 "/>
<path style="fill:none;stroke-width:0.25;stroke-linecap:butt;stroke-linejoin:miter;stroke:rgb(0%,25%,30%);stroke-opacity:1;stroke-miterlimit:10;" d="M 18 7.75 L 18 56.25 "/>
<path style="fill:none;stroke-width:0.25;stroke-linecap:butt;stroke-linejoin:miter;stroke:rgb(0%,25%,30%);stroke-opacity:1;stroke-miterlimit:10;" d="M 18 7.75 L 5.6875 41.578125 "/>
<path style="fill:none;stroke-width:0.25;stroke-linecap:butt;stroke-linejoin:miter;stroke:rgb(0%,25%,30%);stroke-opacity:1;stroke-miterlimit:10;" d="M 18 7.75 L 5.6875 22.421875 "/>
<path style="fill:none;stroke-width:0.25;stroke-linecap:butt;stroke-linejoin:miter;stroke:rgb(0%,25%,30%);stroke-opacity:1;stroke-miterlimit:10;" d="M 18 7.75 L 18 7.75 "/>
<path style="fill:none;stroke-width:0.25;stroke-linecap:butt;stroke-linejoin:miter;stroke:rgb(0%,25%,30%);stroke-opacity:1;stroke-miterlimit:10;" d="M 18 7.75 L 36.863281 4.425781 "/>
<path style="fill:none;stroke-width:0.25;stroke-linecap:butt;stroke-linejoin:miter;stroke:rgb(0%,25%,30%);stroke-opacity:1;stroke-miterlimit:10;" d="M 18 7.75 L 53.449219 14 "/>
<path style="fill:none;stroke-width:0.25;stroke-linecap:butt;stroke-linejoin:miter;stroke:rgb(0%,25%,30%);stroke-opacity:1;stroke-miterlimit:10;" d="M 36.863281 4.425781 L 60 32 "/>
<path style="fill:none;stroke-width:0.25;stroke-linecap:butt;stroke-linejoin:miter;stroke:rgb(0%,25%,30%);stroke-opacity:1;stroke-miterlimit:10;" d="M 36.863281 4.425781 L 53.449219 50 "/>
<path style="fill:none;stroke-width:0.25;stroke-linecap:butt;stroke-linejoin:miter;stroke:rgb(0%,25%,30%);stroke-opacity:1;stroke-miterlimit:10;" d="M 36.863281 4.425781 L 36.863281 59.574219 "/>
<path style="fill:none;stroke-width:0.25;stroke-linecap:butt;stroke-linejoin:miter;stroke:rgb(0%,25%,30%);stroke-opacity:1;stroke-miterlimit:10;" d="M 36.863281 4.425781 L 18 56.25 "/>
<path style="fill:none;stroke-width:0.25;stroke-linecap:butt;stroke-linejoin:miter;stroke:rgb(0%,25%,30%);stroke-opacity:1;stroke-miterlimit:10;" d="M 36.863281 4.425781 L 5.6875 41.578125 "/>
<path style="fill:none;stroke-width:0.25;stroke-linecap:butt;stroke-linejoin:miter;stroke:rgb(0%,25%,30%);stroke-opacity:1;stroke-miterlimit:10;" d="M 36.863281 4.425781 L 5.6875 22.421875 "/>
<path style="fill:none;stroke-width:0.25;stroke-linecap:butt;stroke-linejoin:miter;stroke:rgb(0%,25%,30%);stroke-opacity:1;stroke-miterlimit:10;" d="M 36.863281 4.425781 L 18 7.75 "/>
<path style="fill:none;stroke-width:0.25;stroke-linecap:butt;stroke-linejoin:miter;stroke:rgb(0%,25%,30%);stroke-opacity:1;stroke-miterlimit:10;" d="M 36.863281 4.425781 L 36.863281 4.425781 "/>
<path style="fill:none;stroke-width:0.25;stroke-linecap:butt;stroke-linejoin:miter;stroke:rgb(0%,25%,30%);stroke-opacity:1;stroke-miterlimit:10;" d="M 36.863281 4.425781 L 53.449219 14 "/>
<path style="fill:none;stroke-width:0.25;stroke-linecap:butt;stroke-linejoin:miter;stroke:rgb(0%,25%,30%);stroke-opacity:1;stroke-miterlimit:10;" d="M 53.449219 14 L 60 32 "/>
<path style="fill:none;stroke-width:0.25;stroke-linecap:butt;stroke-linejoin:miter;stroke:rgb(0%,25%,30%);stroke-opacity:1;stroke-miterlimit:10;" d="M 53.449219 14 L 53.449219 50 "/>
<path style="fill:none;stroke-width:0.25;stroke-linecap:butt;stroke-linejoin:miter;stroke:rgb(0%,25%,30%);stroke-opacity:1;stroke-miterlimit:10;" d="M 53.449219 14 L 36.863281 59.574219 "/>
<path style="fill:none;stroke-width:0.25;stroke-linecap:butt;stroke-linejoin:miter;stroke:rgb(0%,25%,30%);stroke-opacity:1;stroke-miterlimit:10;" d="M 53.449219 14 L 18 56.25 "/>
<path style="fill:none;stroke-width:0.25;stroke-linecap:butt;stroke-linejoin:miter;stroke:rgb(0%,25%,30%);stroke-opacity:1;stroke-miterlimit:10;" d="M 53.449219 14 L 5.6875 41.578125 "/>
<path style="fill:none;stroke-width:0.25;stroke-linecap:butt;stroke-linejoin:miter;stroke:rgb(0%,25%,30%);stroke-opacity:1;stroke-miterlimit:10;" d="M 53.449219 14 L 5.6875 22.421875 "/>
<path style="fill:none;stroke-width:0.25;stroke-linecap:butt;stroke-linejoin:miter;stroke:rgb(0%,25%,30%);stroke-opacity:1;stroke-miterlimit:10;" d="M 53.449219 14 L 18 7.75 "/>
<path style="fill:none;stroke-width:0.25;stroke-linecap:butt;stroke-linejoin:miter;stroke:rgb(0%,25%,30%);stroke-opacity:1;stroke-miterlimit:10;" d="M 53.449219 14 L 36.863281 4.425781 "/>
<path style="fill:none;stroke-width:0.25;stroke-linecap:butt;stroke-linejoin:miter;stroke:rgb(0%,25%,30%);stroke-opacity:1;stroke-miterlimit:10;" d="M 53.449219 14 L 53.449219 14 "/>
<path style=" stroke:none;fill-rule:nonzero;fill:rgb(100%,0%,0%);fill-opacity:1;" d="M 63 32 C 63 36 57 36 57 32 C 57 28 63 28 63 32 "/>
<path style=" stroke:none;fill-rule:nonzero;fill:rgb(18.87902%,0%,100%);fill-opacity:1;" d="M 56.449219 50 C 56.449219 54 50.449219 54 50.449219 50 C 50.449219 46 56.449219 46 56.449219 50 "/>
<path style=" stroke:none;fill-rule:nonzero;fill:rgb(0%,100%,37.758041%);fill-opacity:1;" d="M 39.863281 59.574219 C 39.863281 63.574219 33.863281 63.574219 33.863281 59.574219 C 33.863281 55.574219 39.863281 55.574219 39.863281 59.574219 "/>
<path style=" stroke:none;fill-rule:nonzero;fill:rgb(100%,56.637061%,0%);fill-opacity:1;" d="M 21 56.25 C 21 60.25 15 60.25 15 56.25 C 15 52.25 21 52.25 21 56.25 "/>
<path style=" stroke:none;fill-rule:nonzero;fill:rgb(75.516082%,0%,100%);fill-opacity:1;" d="M 8.6875 41.578125 C 8.6875 45.578125 2.6875 45.578125 2.6875 41.578125 C 2.6875 37.578125 8.6875 37.578125 8.6875 41.578125 "/>
<path style=" stroke:none;fill-rule:nonzero;fill:rgb(0%,100%,94.395102%);fill-opacity:1;" d="M 8.6875 22.421875 C 8.6875 26.421875 2.6875 26.421875 2.6875 22.421875 C 2.6875 18.421875 8.6875 18.421875 8.6875 22.421875 "/>
<path style=" stroke:none;fill-rule:nonzero;fill:rgb(86.725877%,100%,0%);fill-opacity:1;" d="M 21 7.75 C 21 11.75 15 11.75 15 7.75 C 15 3.75 21 3.75 21 7.75 "/>
<path style=" stroke:none;fill-rule:nonzero;fill:rgb(100%,0%,67.846857%);fill-opacity:1;" d="M 39.863281 4.425781 C 39.863281 8.425781 33.863281 8.425781 33.863281 4.425781 C 33.863281 0.425781 39.863281 0.425781 39.863281 4.425781 "/>
<path style=" stroke:none;fill-rule:nonzero;fill:rgb(0%,48.967836%,100%);fill-opacity:1;" d="M 56.449219 14 C 56.449219 18 50.449219 18 50.449219 14 C 50.449219 10 56.449219 10 56.449219 14 "/>
</g>
</svg>
